<svg version="1" xmlns="http://www.w3.org/2000/svg" width="737.333" height="737.333" viewBox="0 0 553.000000 553.000000"><path d="M110.8 5.7C94.6 26.3 77.9 60.5 74 80.7 72.9 86 72.4 87 69.9 88c-1.6.7-2.9 1.6-2.9 2 0 1.4 1.3 1.8 3.4 1 2-.7 2.2-.6 1.8 2.2-.3 1.6-1.1 3.2-1.8 3.5-.8.3-1.4 1.1-1.4 1.9 0 .7.6 1.1 1.3.8 1.1-.4 1.5 1.5 2 8.3.6 9.5 3.8 21.3 6.2 23.3 2.5 2.1 1.7 3.2-2.2 2.8-4.7-.4-5.6 1.5-1.1 2.2l3.3.5-3.2 1.4c-2.6 1.1-3.3 1.9-3.3 4.2 0 2.6-.5 3-6.5 4.8-10.7 3.3-19 4.4-30.4 3.8-11.9-.5-19-2.6-28.5-8.3-3.2-1.9-6.1-3.2-6.4-3-2.3 2.3 10.7 9.6 22.4 12.6 14.9 3.8 30 2.2 52.7-5.7 16-5.5 23.7-8.9 23.7-10.2 0-.6 2.1-2.4 4.8-4.2 6.2-4.2 13.6-11.3 17.4-16.7 3.4-4.9 13-10.2 18.5-10.2 1.7 0 3.4-.4 3.7-.9.6-.9 4.1-1.4 31.1-4.1 10.5-1.1 21-2.3 23.5-2.6l4.4-.7-3.2 3.2c-4.2 4.3-8.2 10.1-12 17.8-1.8 3.4-3.9 6.3-4.8 6.5-.9.2-3.6 4.1-6 8.8-2.4 4.7-4.4 7.6-4.4 6.5 0-1.7-.2-1.7-1-.5-.5.8-1 2.7-1 4.2s-1.4 6.2-3.1 10.5c-3.9 10-10.7 33-11.5 39.6-.7 4.8-6.2 21.6-6.4 19.1-.1-2.6 4.2-23.9 6.9-33.8 1.6-6 2.7-11.4 2.5-12-.5-1.3 10.6-27.1 15.5-36.3 3.3-6.1 3.5-8.2.4-3.6-5.9 8.6-17.2 32.8-21.7 46.6-2.9 8.7-5.2 19.4-6.1 28.2-.3 3.3-1.5 12.1-2.5 19.5s-2 16.9-2.2 21l-.3 7.5-4.5 2.9c-2.5 1.5-5.5 3.7-6.6 4.8l-2.2 2-.8-4.4c-.4-2.4-.7-9.2-.7-15.1.1-9.3-.1-10.8-1.4-10.2-1.4.5-1.5-.3-1-5.5.4-4.4.2-6-.6-5.7-.7.2-1.5 1.9-1.8 3.8-.4 1.9-1.4 6.5-2.3 10.4-.9 3.8-2.1 14.2-2.7 23-.7 10.5-1.6 16.9-2.6 18.5-5.8 9.9-9.7 21-7.4 21 .6 0 1.1-.8 1.1-1.8.1-.9 1.6-4.6 3.4-8.1l3.2-6.3 1.3 16.8c.6 9.3 1.3 22.3 1.5 28.9.4 11.9 1.7 19.3 5.4 31.2 1.1 3.5 1.9 6.3 1.7 6.3-.1 0-1.4-1.8-2.9-4-2.7-4.1-5-5.4-4-2.3 1.3 4-5.9-5.7-9-12.2-5.6-11.4-7.1-20.2-7.1-41.2 0-18-.9-22.4-2.8-13.7-1.3 5.7-.1 32.6 1.8 41.4 2.2 10.2 7.7 21.3 13.4 27 3.5 3.5 4.9 5.9 6 10.1 1.7 6.8 5.4 15.3 8.8 20.2 2.7 3.9 9.7 8.7 12.6 8.7 1.4 0 1.7 1.1 1.7 6.7.1 13.8 5.5 27.6 11.9 30.4 1.8.8 4 3.6 6.5 8.1 4.2 7.7 5.9 8.5 2.7 1.4l-2-4.7 5.9 5.3c5.4 4.9 5.9 5.7 6.5 10.6.4 2.9.4 7 0 9.1-.4 2.2.1 7.2 1 12 1 4.5 1.5 8.4 1.2 8.7-.2.3-1-2.4-1.7-5.8-1.6-8.2-7.8-27.6-9.1-28.4-1.9-1.1-2 .3-.4 4.2 4.3 10.4 10.6 40 11.9 56.4.4 4.1 1.1 11.6 1.8 16.6.8 6.7.8 10.3 0 13.5-.8 3.2-.8 5.4.1 8.6 1.2 4.8 2.3 5.4 3.7 2.1l.9-2.3v2.2c.1 2 .6 2.3 4.5 2.3h4.3l.7-6.2c.6-6.1 3.5-18.2 4.2-17.5.2.2-.3 3.5-1.1 7.3-2 9.3-2 16.4 0 16.4 1.1 0 1.5-1.2 1.5-4.9 0-6.4 2.3-17.2 5.4-25.2 3-7.9 7.6-17.9 8.2-17.9.3 0 1.9 1 3.7 2.2 1.8 1.3 3.3 2.3 3.5 2.4.1 0-1.8 3.2-4.3 6.9-4.6 7.1-13.9 25.2-15.1 29.4-1.3 4.8 1.7.9 6.2-8.1 2.5-5 7-13 10-17.8 5.9-9.6 7.4-12.7 5.6-11.6-.7.4-1.2.3-1.2-.1 0-.5-1.8-1.9-4-3.3l-3.9-2.4 2.1-2.3c2-2.2 2.1-2.2 4.7-.4 1.4 1 3.8 2.1 5.2 2.4 2.1.5 2.8.2 3.8-1.9.6-1.5 3.6-5.9 6.6-9.9 4.6-6.1 6.8-7.9 14.2-12.2 4.8-2.7 10-5.3 11.5-5.6 1.4-.4 3.3-.9 4.1-1.3 1-.4 1.6.4 1.9 2.5.3 1.7 0 3.1-.5 3.1s-2.3.7-4.1 1.5c-2.9 1.4-3.1 1.9-2.9 5.8l.3 4.2-1.6-3.7c-1.8-4.2-5.2-5.5-3.9-1.6 2.6 8.4 3.6 44.8 1.4 49-.6 1.1-.7 1.8-.1 1.4 1.2-.7 2.5 13.2 1.6 16.8-.5 2.3-.3 2.6 2 2.6 1.4 0 2.6-.5 2.6-1 0-.6 1.1-.8 2.8-.4l2.7.7-2.7-2.2c-6.2-5-2.2-17 9.1-27.2 7.1-6.4 31.3-24 32-23.3.3.2-.1 1-.7 1.6-.7.7-1.2 1.6-1.2 2 0 1.1 15-11.2 15.7-12.8.2-.7 1.2-1.5 2-1.8 1-.4.7.5-.9 2.6-1.4 1.8-3.8 5.8-5.3 8.8-1.5 3-4.6 8.2-6.9 11.5-2.4 3.3-6.4 9.5-9.1 13.9-2.7 4.3-6.9 10.1-9.5 13-2.6 2.8-5.9 7.2-7.4 9.8l-2.8 4.8h2.4c1.8-.1 3.3-1.8 7.1-8.3 9.1-15.7 25.5-36.4 40.3-51.1 4.6-4.6 27.8-26 37.9-35 2.9-2.6 3.7-3.8 2.7-4.4-.8-.6 2-3.6 9.3-10.2 11.8-10.5 22.5-21.5 22.5-23.2 0-.6-3.9 2.7-8.7 7.3-11 10.6-47 41.9-50.8 44.2-.6.3 1.5-4.7 4.7-11.1 3.2-6.4 7.6-16.6 9.7-22.7l3.8-10.9 11.2-3.7c18.9-6.4 37.1-16.6 49.2-27.7 6.3-5.8 8.4-6.8 4.5-2.1-2 2.3-2.6 4.2-2.6 7.6 0 3-.8 5.8-2.2 8.1-1.6 2.6-1.8 3.4-.7 3 1.3-.5 1.1 1.6-1.2 12.1-2.7 12.8-9.6 39.2-10.5 40-.2.2-.4-.7-.4-2v-2.4l-2 2.5c-1.6 2-1.4.9 1-5.9 1.7-4.6 2.9-8.5 2.7-8.8-.5-.5-6.1 12.7-10.1 23.7-2.1 6-4.5 9.8-11.2 18-15.3 18.8-34.7 50-37.9 60.7-.6 2.2-.4 2.3 5.4 2.3h6l10.3-11.6c5.7-6.3 11.8-13.4 13.6-15.6 5.1-6.5 5.8-6.7 16.2-6.8 13.7 0 42.9 6.9 77 18.2 10.7 3.5 17.5 5.2 21.9 5.4 4.6.2 6.7.7 7.3 1.8.6 1 .5 1.6-.1 1.6-.5 0-1.3 1.4-1.6 3.1-.5 2.1-1 2.7-1.5 1.9-.4-.7-1.3-.9-1.9-.6-2.1 1.3-1.1 2.6 1.9 2.6 2.3 0 3.3-.6 4.2-2.6 1.1-2.4 1.3-2.5 2.5-.8 1 1.4 1.6 1.5 2.5.6 1-1 1-1.7 0-3.2-.9-1.5-.1-1.3 4.1 1.1 2.8 1.7 5.7 3.5 6.4 4.1.6.5 3.4.8 6.3.6l5.1-.3-13.2-7.5c-14.2-8.1-16.2-9.7-19.7-16l-2.3-4.1 12.8 6.5c7 3.6 17.9 9.9 24.1 14 12.5 8.4 16.2 9.5 16.2 4.7 0-2-.8-3.5-2.7-4.9l-2.7-1.9 2.7-7.6c1.8-5 2.7-9.4 2.6-13.4v-5.8l-2.8 8.4c-1.5 4.6-3.6 9-4.5 9.7-1.3.9-1.4 1.3-.4 1.6 1 .4 1 1 .1 3.1-1.3 2.7-1.3 2.7-5 1.2-2.1-.8-5-2.9-6.5-4.5-2.5-2.7-2.7-3.7-2.7-9.7.1-3.8-.6-9.7-1.4-13.3-2-8.2-6.3-20.9-7.8-22.6-.6-.7-1.7-4.1-2.5-7.6s-1.9-7.5-2.5-9.1c-2.4-5.7-2.4-2.3-.1 8.6 2.4 11.4 3.5 35.4 1.8 40.4l-.7 2.2-3.3-2c-2.9-1.7-3.4-2.6-4-7.2-2.5-19.1-11.3-45.8-22-66.3-5-9.6-18.1-29.9-22.7-35.4l-2.1-2.5 1.4 2.5c.8 1.4 3.8 6.2 6.7 10.8 11.6 18.6 19.3 34.3 25.5 52.2 2 5.6 3.6 10.4 3.6 10.6 0 .3-.9 0-1.9-.6-1.1-.5-3.7-1-5.8-1-2.1-.1-7.2-.9-11.3-1.8l-7.5-1.8.3-13.4c.7-26.7-3.5-43.4-15.6-61.1-5.2-7.7-11.7-14.7-12.8-13.7-.3.3 1.6 3.3 4.3 6.6 12.7 15.9 18.4 30.3 20.3 51.7 1 11.2.4 28.5-1.1 28.5-.4 0-3-.5-5.7-1.1-4.6-1.1-5-1.5-5.7-4.8-.3-2-.8-8.8-1.1-15.1-.2-6.3-.8-14.7-1.4-18.5-1.2-7.7-7.9-37.4-8.8-39-.3-.5-1.2.4-1.9 2l-1.3 3 .2-4.5c.2-6.9-.1-9.2-1.2-8.5-1.1.7 1-3 4.2-7.4l1.7-2.4 5.3 3.3c10.8 6.6 28.1 22.6 39.6 36.5l3.3 4-2.5-4.5c-6.6-11.8-24.1-28.9-38.9-38-7.5-4.6-7.7-4.8-5-5.6 1.6-.4 3.3-.8 3.9-.9.6 0 1.8-.6 2.7-1.4 1.9-1.5 7.3-.1 11.8 3 1.4 1 4.2 2 6.1 2.2 7.6.8 35.5 18.8 34.2 22.1-.3.8.4 1.6 2 2 1.4.3 5.8 3.9 9.7 7.9 6.5 6.6 6.7 6.2.7-1.8-1.2-1.6-1.6-2.5-.8-2s4.4 2.8 8 5.1c6.2 3.9 22.8 13.4 23.6 13.4.2 0 .4-1.4.4-3 0-2.7-.9-3.6-6.9-7.5-3.8-2.5-13.6-7.8-21.7-11.8-8.3-4-18.7-10.1-23.3-13.6-4.7-3.4-13-8.5-18.6-11.2-7.4-3.6-10.6-5.7-11.9-8-1-1.7-1.6-3.2-1.4-3.3.1-.2 5.9-2.7 12.8-5.7 6.9-2.9 14.8-6.8 17.6-8.6 3-1.8 12.6-5.6 22.5-8.9 19-6.1 22.1-7.4 22.6-9 .7-2-4.2-7.8-8.6-10.1-4-2.1-4.4-2.7-1.6-2.4.6 0-.3-.9-1.9-2.2-7.7-5.9-8.4-4.8 6.7-10.7 7.9-3.1 13.7-5.9 13.7-6.6 0-.8-.7-1.1-1.7-.8-1.7.5-1.7.5 0-.6.9-.6 1.7-1.9 1.7-3 0-1.7-.7-1.5-7.7 1.7-4.2 1.9-9.4 3.8-11.6 4.1-2.3.3-3.4.8-2.6 1.3 1.3.8-4.9 2.9-8.6 2.9-1.1 0-4.2.7-7 1.6-3.8 1.1-7.1 1.4-13.4.9-5.5-.5-8.6-.3-9 .4-.5.7-1.5.6-3.2-.3-1.5-.7-4.9-1.9-7.7-2.6-4.8-1.1-5-1.3-4-3.5s1.1-2.2 8-.9c3.9.8 7.3 1.6 7.6 1.9.3.3-.3 1.2-1.4 2-1 .8-1.5 1.5-1.1 1.5 2 0 6.8-3.3 9.7-6.7 1.8-2.1 2.9-3.2 2.5-2.4-.6 1-.4 1.2.5.6.7-.4 2.5-3.5 4-6.9 2.1-4.5 3.4-6.2 4.9-6.3 1.2-.1 2.1 0 2.1.3 0 1.4-3.7 7.4-6.8 11.3l-3.6 4.5 3.2-2c4-2.3 6.9-5.9 11.1-13.9 1.7-3.3 4.7-8.7 6.6-12 3.1-5.2 3.5-6.8 3.4-12-.1-3.3.4-8.8 1.1-12.3l1.3-6.3 5.1 4.9c2.8 2.7 7.6 6.8 10.6 9.2 4.6 3.6 5.6 4 5.9 2.5.1-1-.4-2.2-1.3-2.7-3.9-2.2-14.6-12-14-12.9 1-1.7-6.5-12.2-8.2-11.5-.8.3-1.3.2-1-.3.3-.4-.3-1.6-1.4-2.6-2.1-1.9-2.7-6.9-1-8 .6-.3 1-1.9 1-3.5s-.4-3.2-1-3.5c-.5-.3-1-3.2-1-6.3v-5.7l2.9 8c2.8 8.2 7 16.9 7.1 14.9 0-.6-2.3-7.6-5-15.7-4-11.7-4.9-15.5-4.4-18.3l.7-3.6 4.3 4.3c6.1 6 5.5 3.1-.6-3.2-4.9-5-6-7.8-4.1-10.8 1.2-1.9 5.6-1.1 17.1 3.2 9 3.4 12.4 3.9 8.8 1.3-1.7-1.2-15.2-6-20-7-3.4-.8-4.4-4.2-5.2-18.6-.5-11.1-2.3-18.6-6.1-26-2.6-5-14-19.6-21.6-27.7-2.7-2.8-4.9-5.7-4.9-6.3 0-.6-.4-.9-.9-.6-.5.3-1.1-4.4-1.3-10.7-.3-10.3-.6-11.5-3.2-15.5-1.6-2.3-2.6-4.5-2.3-4.8.6-.7 5.7 2.3 9.3 5.4 3.1 2.6 6.4 9.8 5.2 11-.6.6-.7 1.5-.4 2.1.4.7 2.7-.4 5.9-2.9 9.7-7.3 13-10.5 17.8-17.4l4.9-6.9v10.9c-.1 8.1-.6 12.3-2 16.4-2.2 6.4-2.3 7-1 7 .5 0 1.6-1.2 2.4-2.8.8-1.5 1.8-2.7 2.3-2.7.4 0 .7-.8.6-1.8-.2-.9.2-1.7.7-1.7.6 0 2.7-1.5 4.7-3.4 2.1-1.8 4.9-3.9 6.3-4.6l2.5-1.3-2.2 2.5c-2.2 2.3-3.1 5.8-1.6 5.8.4 0 1.8-1.2 3-2.8l2.3-2.7 1.6 2.2c3 4.2 4.4 2.9 4.4-4.2 0-5.4-.2-6.3-1.5-5.8-1.6.6-3.3-1.1-5.7-5.7-.7-1.3-2.4-3.5-3.8-4.8-1.4-1.3-1.8-2-1-1.6 2.8 1.5-8.7-11-23.7-25.7-9.7-9.5-18.6-17.1-25.8-22.1-6-4.2-13.2-9.2-16-11.2C471 .4 469.9 0 464.1 0h-6.4l4.1 3c2.3 1.7 4.2 3.4 4.2 3.8 0 .4 1.2 1.3 2.8 1.9 4.1 1.6 35.6 28.4 46.7 39.8 2.2 2.2 5.7 5.5 7.8 7.3 3.1 2.6 3.7 3.7 3.1 5.5-.7 2.4-7.3 12.7-8.1 12.7-.2 0-.1-.5.2-1 1-1.6-13.7-16.2-15.5-15.6-1.1.5.6 2.8 6.3 8.7 4.2 4.4 7.7 8.5 7.7 9 0 1.5-12.7 11.9-14.5 11.9-.3 0-.5-1.4-.5-3.1 0-4.3-1.3-6.2-6.8-10.2-5.6-4.1-9.9-5-11.6-2.4-.9 1.4-.5 2.7 1.7 6.8 2.4 4.2 3 6.5 3.4 14.7.7 10.9 1 10.7-6.5 3.8-2.1-2-3.5-2.7-4-2-.4.6-1.8 1.5-3.1 1.9-2.1.6-1.7 1 3.4 3 5.6 2.3 10 5.4 9 6.3-.2.3-3.8-1.2-8-3.3-5.8-3-8.7-3.9-13-3.9-3-.1-5.5-.4-5.5-.9 0-.4 1.2-.7 2.6-.7 1.5 0 2.3-.4 1.9-1.1-.4-.6-2.4-.9-4.5-.8-3.2.3-4.5-.3-7.7-3.3-5.6-5-14.6-10.9-23-15.2-4-2-7.6-3.6-7.9-3.6-.4 0 3.3 2.5 8.2 5.6 9.3 5.8 13 8.4 20.2 14.2l4.3 3.4-5.1 4.9-5.2 5-4-3.6c-5.7-5.2-16.6-12.1-26.4-16.6-4.6-2.2-8.6-4.4-9-5-1.2-2-8.8-4.8-11.5-4.2-2.5.5-9.3-1.4-17.9-5-4.3-1.8-13.4-2.6-13.8-1.2-.8 2.1-2.4 3.3-4 2.8-1-.2-9.7 1.2-19.3 3.1-27.4 5.5-30.8 6-88.9 11.1-9.6.8-20.5 1.5-24.1 1.5-18.8 0-80.9 9-83.3 12.1-.6.8-2.1 1.3-3.4 1.1-2.5-.4-12.6 4-20.5 8.9-2.7 1.7-5 2.9-5.2 2.7-.6-.7 2.1-6.7 4.2-9.3 2-2.4 4-3.1 13.5-5.1 6.2-1.3 13.6-2.4 16.5-2.4 2.8 0 12.7-1.3 22-2.9 24-4.2 63.7-9.1 81.5-10.1l15.3-.8-21 .3c-19.8.3-33.9 1.6-64.5 6-5.8.8-18.6 2.6-28.5 4-9.9 1.4-20.4 3.2-23.4 4l-5.5 1.4 6.5-6.5c7.2-7.3 12.2-10.8 26.1-18.5 5.3-2.9 9.5-5.5 9.3-5.7-1.1-1.1-19 7.6-28.8 14-16.1 10.6-25.4 19.1-32.5 29.7-3.3 4.9-5.8 9.2-5.5 9.5 1.4 1.4 3 .4 4.8-3.1 2.1-4 7.3-10.3 8.4-10.3.3 0 .5 2.3.4 5l-.2 5 3.2-1.6 3.2-1.6-2.9 3.1c-1.7 1.7-3.5 3.1-4 3.1-.6 0-2.2 1-3.6 2.1s-1.8 1.8-1 1.4c.8-.3.7 0-.4.7-1 .7-3.6 2.9-5.7 4.9-3.3 3.2-9.4 5.7-10.7 4.5-.2-.3 1.6-1.5 4-2.7 3.8-2.1 4-2.4 2-2.7-1.3-.2-3.8.2-5.4.9-3.7 1.5-4.7.5-7.9-8-3-8-3.9-14.1-3.9-25.2 0-11 1.4-13.2 2.4-3.8.4 3.3 1 6.7 1.3 7.5 1.4 3.6 1.8.4 1.5-11.7-.6-20.7.7-27.2 7.9-41.6 3.3-6.8 5.7-12.7 5.4-13.3-.8-1.2 2.2-6.2 7.5-12.7 2.4-2.8 3.5-5 2.9-5.4-.6-.3 1.5-3.8 5-8.3 4.8-5.9 5.7-7.6 4.3-7.6-1.1 0-3.8 2.4-6.4 5.7zm386.3 18c1.3 1.6 1.2 1.7-.3.4-1-.7-1.8-1.5-1.8-1.7 0-.8.8-.3 2.1 1.3zm11 14c1.3 1.6 1.2 1.7-.3.4-1-.7-1.8-1.5-1.8-1.7 0-.8.8-.3 2.1 1.3zm7 6c1.3 1.6 1.2 1.7-.3.4-1-.7-1.8-1.5-1.8-1.7 0-.8.8-.3 2.1 1.3zm5 0c1.3 1.6 1.2 1.7-.3.4-1-.7-1.8-1.5-1.8-1.7 0-.8.8-.3 2.1 1.3zm16.3 25.8c-.4 1 0 1.5 1.2 1.5 1.8 0 6.4 3.7 6.4 5.1 0 .5-1.3 1.5-2.8 2.3-1.6.8-4.3 3-6.1 4.8l-3.4 3.3.7-7.5c.3-4.1.2-9.7-.3-12.5l-.9-5 2.9 3.2c1.6 1.9 2.6 3.9 2.3 4.8zM81.1 80.6c-.5 2.1-.9 3-1 1.9-.1-2.4 1-6.7 1.5-6.2.3.2 0 2.2-.5 4.3zM374 77c10.2 1.4 16.9 3.4 21.1 6.5 1.8 1.5 7.1 4.7 11.6 7.3 8 4.6 14.6 10.2 25 21.3l5.3 5.6-1.9 3.9c-7.9 16.9-5.6 41.5 6.2 64.9 8.3 16.6 17.8 27.9 30.2 36.2 7 4.7 9.8 5.8 16.1 6.2.7.1 1.2 1.1 1.2 2.3 0 1.3.1 7.7.1 14.3.2 16.5-3.3 35.8-9.5 52.5-2 5.3-3.1 7-4.5 7-2.4 0-2.5 1.7-.2 2.2 1.6.3 1.6.5-.2 2.3-1.1 1.1-1.9 2.8-1.7 3.8.2 1-.3 1.7-1.2 1.7-1 0-1.5.8-1.4 2.2.1 2.1-4.4 11.2-8.4 16.9-1.3 1.8-1.1.6.8-5.4 4.5-14.6 8.6-41.3 5.9-38.5-.2.2-1.8 7.1-3.5 15.2-4 19.2-7 28.6-13.5 42.1-14.4 29.8-36.7 53.1-64 66.8-6.5 3.2-23.5 9.7-25.6 9.7-.5 0 .9-2.6 3.1-5.9 11.6-17 26.1-58.8 25.9-74.8 0-5.6-.1-5.5-2.4 5.2-2.7 13-2.7 13-8.4 21.9-6.9 10.7-25.2 23.4-38.9 27l-5.2 1.4 6.2-6.1c7.6-7.7 13.7-15.9 18.4-24.9 2-3.7 4.9-7.9 6.4-9.2 3.8-3.1 4.2-4.1 9-21.1 4.3-15.3 5.9-18.5 9.2-18.5 2.4 0 2.3-2.6-.2-3.3-1.2-.3-2-1.4-2-2.6 0-1.5.4-1.9 1.8-1.4 1.6.6 1.6.5-.1-1.4-1.1-1.3-1.4-2.3-.8-2.7 1.3-.9.2-3.6-1.4-3.6-1.1 0-1.3-3.9-1-20.8.3-11.4.5-21.4.5-22.2 0-.8 3.4 2.1 7.5 6.5s7.5 7.6 7.5 7.1c0-1.3-7.3-10.5-11.9-15.1-3.4-3.2-4.1-4.6-4.1-7.7 0-2.1-.4-3.8-1-3.8-.5 0-1 1.1-1 2.5 0 2.4-.1 2.4-6.2-1.9-10.5-7.3-19.4-10.9-33.2-13.6-3.5-.7-5.4-1.5-4.7-2 .9-.5.6-1.4-1.2-3.4-3.8-4.1-9.5-26.2-14.7-57.3-1.6-9.9-1.8-13.4-1-19 1.2-8.4 1.3-23.4.1-21.3-.5.8-1.2 4.9-1.5 9-2.3 24.5-16.5 79.9-21.5 83.7-.9.7-1.1 1.3-.4 1.3.8 0 .6 1.2-.5 4-1.3 2.9-2.6 4.3-5 5.1-1.8.6-3.9 1.7-4.7 2.6-2 2-.8 3.9 1.3 2 1.9-1.6 5.2-2.9 5.2-2.1 0 .3-2.6 6.3-5.9 13.3-5.3 11.7-16.7 32-21.3 38-1 1.3-1.8 3-1.8 3.7 0 7.1 16.6-18.5 27.6-42.6 4.9-10.7 6.6-13.6 8.5-14.1 3.2-.9 21.9-.9 24.1-.1 2 .8 11.8 15.7 17.8 27 5.8 10.8 15.3 22.7 24 29.8 5.7 4.7 6.9 6.2 7.3 9.3.2 2 .3 3.7.3 3.8-.1.1-1.9-.9-4-2.3-10.5-7.1-28.9-14.7-38.1-15.7-2.4-.2-6.9-2.1-11-4.5-3.8-2.3-7.1-3.9-7.4-3.6-.3.3 1 2 3 3.8l3.5 3.3-12.1 1.1c-6.6.6-13.4 1.6-15.2 2.2-2.3.8-3.7.8-5.2.1-3.2-1.7-4.6-1.4-2.8.7 2.4 2.7 2.1 3.3-2.9 7-2.4 1.8-5.8 5.2-7.5 7.5-3 4.1-3 4.2-.9 4.5 1.2.2 3.9-.4 6.1-1.2 2.2-.9 4.4-1.4 4.9-1.1.5.3 2-.1 3.2-.9 1.8-1.1 17.7-4.6 20.9-4.6.3 0-.3 2.6-1.4 5.7-1.5 4.2-2 8.6-2.1 15.8-.1 13.2 2.8 23.3 8.4 28.6 3.3 3.2 3.6 3.8 2.4 5.4-1 1.3-1.1 2.2-.3 2.9.7.8 1.3.6 2-.6.6-1 1.7-1.8 2.6-1.8 1.3 0 1.3.3.3 1.5-.9 1.1-1 1.9-.3 2.6.7.7 1.7.2 3.1-1.5 2.1-2.8 7.8-3.6 9.9-1.5.7.7 1.5.5 2.7-.6 2.8-2.8 1.8-3.5-5.3-3.5-6.7 0-7-.1-10.1-3.7-4-4.6-6-9.1-6-14 0-4.6 3.2-8.3 7.2-8.3 2.7 0 2.8.2 2.8 5 0 6.5 1.6 10 4.7 10 2.6 0 2.7-.4 1.4-4.6-.5-1.6-1.2-4.8-1.4-7.1-.5-3.9-.3-4.3 1.6-4.2 1.2 0 3.9-.2 6-.5 4-.5 4.7.3 1.8 2.1-1 .6-2 2.8-2.4 5-.3 2.1-.8 4.6-1.2 5.5-.5 1.2-.1 2 1 2.5 2.5.9 4.3-1.9 5.7-8.7l1.1-5.7 3.4 1c1.8.6 3.3 1.6 3.3 2.3 0 2.4-4.1 12.2-6.2 14.9-2.4 3-1.7 4.6 1 2.2 2.5-2.3 3.9-2.1 1.8.2-1.5 1.6-1.5 1.9-.2 2.4 3.2 1.2 11.9-12.3 13.2-20.5l.6-3.3-5.9-.3c-5.5-.3-10.3-2.2-10.3-4.1 0-.5 1.2-2.3 2.6-4 3.1-3.7 6.9-4.1 10.8-1 1.4 1.1 2.6 1.6 2.6 1.1 0-1.8-2.2-7.2-3-7.2-.4 0-1.1-.8-1.4-1.7-.5-1.3 0-1.1 1.8.6 1.4 1.3 3 3.9 3.7 5.8 1.3 3.9 3.5 3.9 3.2-.1-.2-3.4 1-2.6 3.1 1.9 1.6 3.3 1.6 3.7-.2 7.7-1.1 2.4-2.2 5.3-2.6 6.5-.3 1.3-.9 3.2-1.2 4.3-.9 3.3 2.3 2.4 6.8-2 2.3-2.2 4.3-3.8 4.5-3.6.6.6-7.6 22.5-10.7 28.6-1.5 3-3.8 6.4-5.1 7.5l-2.4 2 1.9-2.3c2.9-3.4 1.4-3.5-2.5-.2-1.9 1.6-4 2.9-4.8 3-1.7 0-10.7 5.2-14.1 8.1l-2.5 2.1 3.5-2c14.6-8.4 16-8.9 11.4-4.1-2.9 3.1-2.9 3.1-.4 2.4 3.1-1 8-4.5 8-5.9 0-.5.3-.6.7-.3.6.7-4.6 8.8-7.8 11.9-.9.9-2 1.4-2.3 1-.4-.3-.4.1-.1.9.8 2.2-9.8 11.6-14.5 12.9-4.6 1.3-5.6 1.3-11.8-.4-2.9-.7-5.2-1.2-5.2-1 0 .2 1.9 1.4 4.3 2.6 3.5 1.9 5.8 2.2 13.7 2.2 11.1 0 19.4-2.4 27.8-7.9 2.9-1.8 5.2-3.1 5.2-2.8 0 1.9-4.4 16-5.3 17.2-.7.8-1 2.4-.9 3.5.4 3.4-8.9 16.9-14.5 21-4.3 3.2-10 6.3-31.3 17.1-11.1 5.7-35.5 13.4-53.5 17.1-9.3 1.8-18.6 3.4-20.5 3.4-6 0-24.9-6.8-38.6-13.9-7.2-3.8-19.3-11.3-26.9-16.7-12.9-9.3-14-10.4-18.1-17.4-2.5-4.1-4.7-8.6-5-10-.3-1.4-1-3.6-1.5-4.9-.6-1.3-1.2-7.9-1.5-14.5-.2-6.7-.9-13-1.4-14.1-.5-1.1-1.6-4.6-2.5-7.7-.8-3.2-1.8-6.4-2.1-7.2-.3-.8.2-1.6 1.3-1.9 1.6-.4 1.6-.5-.2-.6-2.1-.1-4-4-9.5-19.4-1.5-4.4-3-7.3-3.2-6.5-.3.8-1.2 0-2.2-2.1-1.6-3-1.7-5.5-1.1-26 .6-19.2 1.9-35.4 2.4-28.6.1 1.1 1.3 5.1 2.7 9 1.4 3.8 2.7 7.7 2.8 8.6.2 1.9 10.5 11.3 11.4 10.5.3-.4-.5-1.7-1.8-3.1-3.1-3.3-2.1-3.2 1.5.1 2.4 2.2 2.6 2.9 1.7 4.9-1.9 4.2-5.9 6-12.7 5.8-5.5-.2-5.8-.1-4 1.2 1.1.9 3.6 1.8 5.6 2.1l3.7.6-2.9 4.1c-1.6 2.2-2.9 4.6-2.9 5.4 0 1.3 7.8 17.2 9 18.3.3.3 1.8 2.4 3.3 4.8 5 7.6 7.2 3.4 3.8-7.1-2.7-8.5-3.4-14.8-1.9-16.8.7-.8 4.3-3.9 8-6.7l6.8-5.2-.6 3.2c-.3 1.8-1 5.7-1.6 8.7-2.5 13.2.2 26.7 6.8 33.6 1.8 2 3.4 4.3 3.4 5 0 2.2 1.9 2.8 3.5 1.1 1.4-1.4 1.4-1.7-.5-3.6-1.1-1.1-2-3.2-2-4.8 0-1.5-.5-4.4-1.1-6.6-1.3-4.5-.6-7.9 2.1-10.6 3.4-3.4 4.7-2.5 5.4 3.7.4 3.2 1.1 7.5 1.7 9.5.8 3.2 1.4 3.8 3.7 3.8 1.7 0 2.3-.3 1.4-.8-1-.7-4.2-13.8-4.2-17.4 0-.5 1-.8 2.3-.6 2.1.3 2.2.7 1.9 6.8-.3 7 .9 10.3 2.9 8.3.6-.6 1-3.3.7-6.5-.2-4.5 0-5.4 1.4-5.4 2.1 0 3.1 6.2 2.2 13.1-.4 2.8-.8 6.1-.9 7.5-.1 1.4-.3 3-.3 3.6-.2 1.4-3.4 1.3-4.4 0-.7-1.1-7.8 2.3-7.8 3.7 0 .4-.6.7-1.2.6-2.5-.3-3.6.1-4.2 1.7-1 2.6.4 3.7 2.4 1.9 1-.9 3-1.8 4.5-2.1 1.6-.3 3.5-.9 4.4-1.3.9-.5 2.1-.6 2.7-.4.6.2 2.5-.9 4.1-2.5 1.7-1.5 3.6-2.6 4.2-2.4 2.3.8 3.3-5.3 2.8-18.6-.3-7.3-.8-13.6-1.1-13.9-.3-.3-1.2.2-2.1 1.1-.9.9-2.3 1.6-3.1 1.6-.9 0-1.2.5-.8 1.1.4.7-.8.1-2.7-1.2-1.9-1.3-3.5-2.4-3.7-2.5-.1 0 1.6-2 3.8-4.4 4.6-5 4.9-6.6 1.7-11.8-1.2-2-2.7-4.5-3.3-5.6-.5-1-1.4-1.8-1.9-1.8-.6 0-2.3-.8-4-1.8-6.3-3.9-16.7-7-23.6-7.2-3.7 0-7.2-.4-7.7-.7-2.5-1.5-5.1-31.4-3.8-42.3l.7-5.6 5.7-1.5c3.1-.9 7.8-1.9 10.4-2.2l4.7-.7.6 3.8c2.6 15.3 12.1 46.4 14.6 47.9 2 1.3.7 2.4-1.6 1.3-3-1.4-4.8 0-2 1.6 1.1.6 3.1 2.3 4.6 3.8 1.5 1.6 3.3 2.8 4 2.8.7 0 3 1.7 5.1 3.7 2.1 2 4 3.5 4.2 3.2.3-.2-1.8-3.4-4.6-6.9-5.5-7.1-11.7-18.7-12.3-22.8-.2-1.5-1.4-6.1-2.8-10.2s-3-10.4-3.6-14c-2.4-14.2-2.4-13 .2-13 1.3 0 4.5 1.1 7.1 2.5 2.5 1.3 4.6 2 4.6 1.5 0-1.6-5.4-5.1-9.7-6.3-4.2-1.1-4.2-1.2-5-6.6-1.3-8.8-.9-39.8.6-48.1 6.8-39.2 18.5-71.5 30.7-85 2.1-2.3 3.2-4.4 2.8-5.3-.4-1.1.2-1.6 1.8-1.9 1.3-.2 2.2-.9 2.1-1.5-.2-.7 1.2-1.5 3-1.7 1.7-.3 5.9-1 9.2-1.6 8.6-1.4 32.4-3.8 50.5-5 26.4-1.8 54.7-5.8 77-10.9 9.7-2.2 15.4-2.4 26-1.1zm46 15.1c7.5 4.1 19.7 12.6 22 15.4.6.8.9 1.9.5 2.5-.3.6-3.4-1.2-7.4-4.4-3.8-3-10.7-8-15.5-11.1-4.7-3.1-8.6-5.8-8.6-6.1 0-.9 1.8-.2 9 3.7zm58.5 12.4c3.3 1.5 7 2.7 8.2 2.7 1.2 0 3.8 1.8 5.9 3.9 4.3 4.5 4 4.9-1 1.5-5.9-4-17-4.4-23.8-1-5.8 3-10.4 10.4-13.3 21.5-2 7.3-2.5 20.6-.9 21.7.5.4 1.8 4.3 2.9 8.7 3.9 16.8 15.7 33.7 26.7 38.5 3 1.3 7.9 2.5 11.3 2.7 10.2.5 10.5.7 10.5 5.8 0 2.5-.1 4.5-.3 4.5-.1 0-1.8-.4-3.7-1-4.1-1.2-8.9.1-11.6 3.1-1.7 1.8-1.7 2.1-.1 3.6 1.6 1.6 1.7 1.6 1.7-.3 0-1.3 1-2.5 2.5-3.2 3.4-1.6 5-1.5 8.5.3 4.6 2.4 6 9.3 3.4 17.4-.6 2-.4 2.3.9 1.8 2.4-.9 2.1.9-.3 2.6-1.9 1.3-1.9 1.6-.5 5 .8 2 1.5 4.8 1.5 6.2 0 3.2 2 2.3 2-.8.1-1.7.4-1.5 1.6 1.2l1.4 3.4 3-2.8 2.9-2.7 1.4 3.3c.7 1.9 2.2 5.6 3.2 8.4 1 2.7 2.4 5.9 3.1 7 1.1 1.7.7 3.2-3.3 11.2-2.6 5.1-5 9-5.5 8.7-.4-.3-.8.5-.8 1.7 0 1.8-.2 1.9-1.5.9-.8-.7-1.5-1.8-1.5-2.4 0-1.5-6.1-6.4-13.2-10.7-3.5-2.1-5.6-3.9-5.3-4.7.3-.8.8-3.9 1.1-7 1-8.6 1.7-9.6 7-8.8 5.3.7 5.9-.9 1.4-4.2-1.6-1.3-3-1.8-3-1.3s-1.5 1.4-3.4 2.1c-2.7.9-3.5 1.7-3.9 4.3-2.4 13.6-2.9 18.6-2.3 20.2.5 1.3 1 1.5 1.8.7s2.6.1 6.7 3.3c8.6 6.6 8.5 5.9 3.8 15.1-6.9 13.3-6 12.7-15.3 10.8-4.4-1-8-1.8-8.1-1.9-.1 0 1.3-4.8 3.2-10.6 4.2-12.9 7.2-27.7 8.1-39.2.7-8.7 1.1-9.6 3.1-7.6.6.6 2.3.9 3.8.7l2.8-.3-3.9-2.5c-3.3-2.1-3.9-3.1-4.2-6.5l-.3-4 3.8 3.8c3.5 3.3 5.3 3.9 5.3 1.6 0-.4-1.2-2.2-2.7-4-3.1-3.7-4-6.9-1.9-6.9.8 0 1.8-.4 2.1-1 .7-1.1-5.7-4-8.9-4-1.1 0-5.3-1.1-9.3-2.4-10-3.3-22.2-13.6-29.7-25-6.1-9.3-11-18.5-10.2-19.4.3-.3.6-.1.6.4 0 .6.7 1.9 1.5 3 1.4 1.8 1.5 1.7.9-1.1-.3-1.7-1.7-5.1-3-7.8-7-13.7-7.2-36.9-.6-50.5 4.5-9.1 6.1-10.9 13.7-14.7 5.4-2.6 3.7-3.4-2.3-1l-3.7 1.5 2.5-2c4.3-3.3 8-4.5 10.1-3.2 1 .7 2.7 1.2 3.6 1.2 1.6-.1 1.6-.2-.2-1.7-1.9-1.4-1.7-1.5 3-1 2.8.3 7.7 1.8 11 3.2zm-39.7 10.2c-.6.8-1.4 1-1.8.6-.3-.4-3.3-3.7-6.6-7.2l-5.9-6.5 7.7 5.9c6.1 4.7 7.5 6.2 6.6 7.2zm58.8-1.5l2.9 3.3-3.2-2.9c-3.1-2.8-3.8-3.6-3-3.6.2 0 1.6 1.5 3.3 3.2zm-5.2 2.4c9.5 4.9 11.8 6.8 13.3 11.2.6 2 1 3.8.8 4-.2.2-1.8-1.7-3.7-4.1-3.7-5-12.2-11.7-14.7-11.7-.9 0-2.2.5-2.9 1.2-1.5 1.5-1.6 4.8-.2 4.8.6 0 1-.7 1-1.5 0-2.4 4.2-1.7 7.6 1.3 4.5 4 9.7 11.6 14.1 20.9 3.3 6.9 3.6 8.1 1.9 6.9-3.3-2-5.5-3.2-13.6-6.6-17.2-7.3-21.9-10-23-13.6-1.5-4.4 0-7 4.5-7.8 1.9-.4 4-.4 4.5-.1.6.3 1-.1 1-.9 0-1.2-1.1-1.6-4.3-1.6-6.1 0-8.7 2.1-8.7 7.2 0 4.1 3.1 9.8 5.3 9.8.6 0 2 .8 3.1 1.8 1.2 1 4.6 2.9 7.6 4.1 3 1.3 8.7 3.8 12.5 5.6 3.9 1.8 8.5 3.6 10.2 4 1.8.3 3.5 1.1 3.8 1.6.4.5 1 .9 1.6.9 1.5 0 1-7.2-1.1-13.9-1.1-3.5-1.9-6.6-1.6-6.8.2-.2 1.6 2.1 3.1 5.2 2.4 4.7 2.7 6.3 2.1 10.8-.4 2.8-.7 6-.7 7s-1.1 3.4-2.5 5.4c-2.7 4-3.2 3.7-.9-.6 1.3-2.6 1.3-3-.3-4.4-5.5-4.9-40.1-17.4-41-14.8-.2.6-1.2 1.1-2.3 1.1-4.6 0-7.5 11.9-4.4 18.1 2.3 4.5 4.5 6.9 6.3 6.9 1.3 0 1.3-.2 0-1.8-5.8-6.5-6.4-18.9-1.1-20.9 1-.4 2-1 2.4-1.5.6-1 25.2 7.9 33.1 11.9l5.7 2.9-3.4 4.9c-1.9 2.7-3.5 5.3-3.5 5.8 0 1.2-8.9 12.3-12.7 15.9-2.6 2.5-3.2 2.7-6.7 1.7-6.3-1.7-10.6-8.1-10.6-15.7 0-1.3-.4-2-1-1.7-1.9 1.2-1.1 8.7 1.5 13 2.4 4.1 5.9 6.4 10.4 6.8 1.2.1 2 .6 1.7 1.3-.3.7-.2 1.5.1 1.8.7.6 13.5-12.6 16.6-17.1 1.2-1.8 2.8-3.5 3.5-3.8 1.4-.5 1.3-.3-5.5 11.9-2.8 4.9-4.1 8.2-3.5 8.8.6.6 3.8-4.5 8.8-13.7 9.3-17.4 9.9-17.3 9.9 2.1 0 14.1-.7 16.4-5.1 16.4-1.3 0-2.4.4-2.4 1 0 .5 1.4 1 3.2 1h3.2l-2.8 2.8c-1.5 1.6-3 4.6-3.4 6.8l-.7 3.9-.5-4c-.6-4.6-1.9-5.2-13-5.4-11.8-.3-17.2-4.7-27.7-23.1-9.4-16.2-12.8-36.9-8.4-50.2 2.5-7.6 7.9-14.4 12.4-15.7 7.2-2.1 13.7-1.3 21.1 2.5zM84.1 130.8c1.3 1.5 1.2 1.6-.4.3-2.3-1.9-4.3-5.7-5.1-10.1-.5-2.7-.1-2.1 1.8 2.3 1.3 3.2 3 6.5 3.7 7.5zm93 12.7c-2.6 7.7-5.5 16.9-6.4 20.5-1.5 5.7-13.6 30.7-12.3 25.5 3.2-13.7 11.1-36.7 12.7-37.3.5-.2.9-1.1.9-2 0-1.6 9.1-21.5 9.6-20.9.1.1-1.9 6.5-4.5 14.2zM88 138.9c0 1.1-12.3 4.8-14 4.3-2-.7 10-6 12.3-5.4.9.2 1.7.7 1.7 1.1zm431.4 17.6c.7 2.8.6 2.9-.7 1-.8-1-1.2-2.5-1-3.3.7-1.6.9-1.4 1.7 2.3zm1.4 19l-.1 5-.7-5.5c-.4-3-1-7.1-1.3-9-.6-3.4-.6-3.4.8.5.7 2.2 1.3 6.2 1.3 9zM166.3 202c-1.3 13.2-1.1 36.9.4 40.5.3.9-1.2 1.5-4.7 2-2.8.4-7.3 1.3-10 2l-5 1.3v-2.6c.1-5.7 6.7-29.5 8-28.7.7.5 3.4-6.3 6.1-15 1.5-5 5.8-14.9 6.3-14.4.1.2-.3 6.9-1.1 14.9zm353.3-1.7c-1.9 6-3.8 9.6-7.1 13.5-4.9 5.9-5.6 5.8-2.5-.3 1.1-2.2 2-4.8 2-5.8s1.5-3.6 3.3-5.8c1.9-2.1 4-5.7 4.7-8 .8-2.3 1.6-3.6 1.8-3 .2.7-.8 4.9-2.2 9.4zm-203.2 13.9c1.5 3.2 6.6 17.1 6.6 17.9 0 .3-5.8.5-13 .6-7.1 0-13-.1-13-.3 0-.2.9-2.3 1.9-4.7 1.9-4.2 7.8-22.1 10.1-30.7l1.2-4.5 2.3 9.2c1.3 5 3 10.7 3.9 12.5zm205.6-9.8c0 1.3-.6 2.6-1.4 2.9-1.1.5-1.2 0-.3-2.4 1.4-3.5 1.7-3.6 1.7-.5zm-2.4 12.5c-.9 1-1.6 2.9-1.6 4.3s-1.2 4.2-2.7 6.1c-1.6 2-3.5 4.7-4.5 5.9-1.6 2.2-1.6 2-1.1-4.2.4-4.8 1.2-7.2 2.9-9.3 1.3-1.6 2.4-3.2 2.4-3.6 0-.5 1.2-2.1 2.8-3.6l2.7-2.8.3 2.8c.2 1.5-.4 3.5-1.2 4.4zm-6.1 22.2c-1.4 3-2.5 6.1-2.6 6.9-.1.8-.5-.1-.8-2-.6-3-.2-4 2.4-7.1 1.6-1.9 3.1-3.5 3.3-3.4.1.1-.9 2.6-2.3 5.6zm7.3-.7c.5 3.8-.6 7.8-1.9 7-.6-.3-2 .2-3.1 1.3-1.6 1.3-2 1.4-1.6.3 3.1-9.1 4.4-12 5.3-11.7.5.2 1.1 1.6 1.3 3.1zm-396.9 10.7l1.2 12-2.6 3.5c-1.4 1.9-2.9 3.4-3.2 3.4-.3 0-.3-4.2.1-9.3 1.1-15.6 1.8-21.7 2.5-21.7.4 0 1.3 5.4 2 12.1zm217.1 3c2.9 4.2 8.7 10.9 9.5 10.9.3 0-1.6-3-4.1-6.7-3.9-5.6-10.4-17.4-10.4-18.6 0-.8 12.6 2.2 18.1 4.2 5.7 2.2 15 7.4 20.6 11.7 2.5 1.9 3.1 3.1 3.1 6.1.2 24.9.1 39.8-.3 40.1-.5.6-11.5-8.8-11.3-9.6.1-.4-2.8-3.6-6.3-7.3-6.2-6.3-16.9-20.7-17.3-23.2-.1-.7-1.1-2.8-2.3-4.7-2.3-3.7-8.3-16.7-8.3-17.8 0-.4 1.5 2 3.3 5.3 1.8 3.3 4.4 7.6 5.7 9.6zm186-7c.7 1.2.9 4.1.4 7.5l-.7 5.6-1.7-3.9c-1.3-2.9-1.4-4.6-.7-7.6 1.1-4.3 1.3-4.4 2.7-1.6zm7 1.4c1.4 1.9 1.4 1.9-.2.6-1-.7-1.8-1.8-1.8-2.4 0-.6.1-.8.3-.6.1.2.9 1.3 1.7 2.4zm-390.2 47.7c1 4 .7 4.3-3.1 2.9-2.9-1.1-6.9-9.6-9.7-20.7-3.4-13.1-2.6-15.6 7-21.3l3.5-2.1.7 18.8c.4 10.3 1.1 20.4 1.6 22.4zm-18.1-23.5c-2 16.1-2.7 23.3-3.3 35.7-.4 7.9-1.1 13.2-1.5 12.3-1.5-2.6-3.2-25.1-2.6-35.4.4-9.5.7-10.6 3.3-13.7 1.6-1.9 3.3-3.5 3.8-3.5.5-.1.6 2 .3 4.6zM376 301.5c1.7 1.6 1.6 6.5-.1 6.5-.7 0-3.9-6.2-3.9-7.6 0-1 2.5-.3 4 1.1zm5.1 6.2c-1.2 2-1.4 1.4-.5-1.2.4-.9.9-1.4 1.1-1.1.3.2 0 1.3-.6 2.3zm98.9 7.9c0 .2-.9.4-2 .4s-2-.4-2-.9.9-.7 2-.4c1.1.3 2 .7 2 .9zm-142.4 4.8c0 1.4-.6 2.2-1.3 1.9-.9-.4-.9-.9 0-2.4 1.5-2.4 1.5-2.4 1.3.5zm152.9 1.6c2.8.5 7.9 1.2 11.4 1.6 7.1.7 15.3 3.3 27.6 8.6 4.4 2 8.8 3.8 9.8 4.1 2 .7 2.3 2.6.5 3.1-.7.2-5.3 1.6-10.3 3.1-4.9 1.5-13.5 4.8-19 7.5s-13.8 6.4-18.5 8.3c-4.7 1.9-12.4 5.1-17.3 7.1-10.2 4.3-33.7 9.3-33.7 7.2 0-.4 7.1-12.1 13.2-21.8 1.5-2.4 5.4-8.4 8.8-13.3 3.3-5 6.3-10.1 6.7-11.5 1.2-5.1 3.1-6.1 9.7-5.5 3.4.4 8.4 1 11.1 1.5zm36.4 1.1c4.8 1.7 3.3 1.9-2.4.4-2.7-.8-4.1-1.4-2.9-1.4 1.2-.1 3.5.4 5.3 1zM132.4 365c2 4.6 3.4 8.5 3.2 8.7-.3.3-5.4-11.2-7.3-16.5-1.7-4.7 1 .4 4.1 7.8zm5.7 18.7c3.6 3.9 5.8 8.7 4.6 9.9-.8.8-6-2.1-9.1-5.3-3.4-3.4-7.8-11.8-10-19.2-.9-3-1.6-5.7-1.6-5.9 0-.2 2.8 3.3 6.2 7.9 3.4 4.6 7.8 10.3 9.9 12.6zM466 373c0 .5-1.5.9-3.2.9l-3.3-.1 3-.8c1.7-.4 3.1-.8 3.3-.9.1 0 .2.3.2.9zm-9.1 2.4c-1.4.7-4.9 1.9-7.7 2.6-2.8.6-5.6 1.8-6.3 2.6-1.5 1.8-2.9.2-2.9-3.3 0-2 .5-2.2 7.1-2.2 3.9 0 7.4-.3 7.7-.6.3-.3 1.5-.5 2.6-.5 1.9 0 1.8.2-.5 1.4zm-18.1 11.2c.4 3.8.4 8.9 0 11.4-.3 2.5-.7 7.2-.7 10.5-.2 11.6-6.3 32.4-14.7 50.2-5.4 11.6-7.8 15.1-4.5 6.5 2.6-6.7 5.9-21.2 7-31.6.6-4.8 1.5-9.4 2-10 .7-.9.7-1.6 0-2.3-.7-.7-.6-4 .2-10.3 1.2-10.5.4-22.4-1.5-21.7-.6.3 1.3-2.1 4.4-5.3 3-3.1 5.9-5.4 6.3-5 .4.4 1.1 3.8 1.5 7.6zm-62.8 2.7c-3.9 10.1-12.4 27.1-12.8 25.7-.2-.6.3-2.6 1.2-4.4.9-1.9 1.6-4.1 1.6-5 0-2.9 4.9-15 6.4-15.8.9-.5 2.5-2.7 3.7-5 3.2-6.3 3.2-3.9-.1 4.5zm68 .1c0 .3-.4.8-1 1.1-.5.3-1 .1-1-.4 0-.6.5-1.1 1-1.1.6 0 1 .2 1 .4zm-18.3 10.3c-.3 1-.5.2-.5-1.7s.2-2.7.5-1.8c.2 1 .2 2.6 0 3.5zm-3 16.5c-.3.7-.5.2-.5-1.2s.2-1.9.5-1.3c.2.7.2 1.9 0 2.5zm21.5 3.9c.5 6.5.5 6.6-1.8 6.1-1.9-.3-2.4 0-2.4 1.5 0 3 3.5 12.6 8.5 23.3 3 6.6 4.7 11.8 5.4 16.9.5 4.1.8 7.8.5 8.2-.4.7-23.3-7-28-9.4l-2.4-1.2 3-6.3c1.6-3.5 3.5-6.1 4.2-6 .7.2 1.3-.4 1.3-1.2 0-.8.5-1.8 1-2.3.6-.4.6-1-.2-1.5s-.2-3.7 2.3-12c1.9-6.2 3.4-12 3.4-12.9 0-1.2.3-1.3 1.4-.4 1.2 1 1.6.3 2.1-4.4.4-3.1.9-5.5 1-5.3.1.2.5 3.3.7 6.9zm6.2 6.4c2.3 11 5.7 34.5 5.5 37.7-.2 3.7-7.9-35.9-8.4-43.2-.6-10.5-.3-9.7 2.9 5.5zm-106.4 8c0 .2-1 .9-2.2 1.5-2.2 1.1-2.2 1-.4-.4 2.1-1.7 2.6-1.9 2.6-1.1zm9.1 3.2c-1.2 2-1.4 1.4-.5-1.2.4-.9.9-1.4 1.1-1.1.3.2 0 1.3-.6 2.3zm-2 5c-1.2 2-1.4 1.4-.5-1.2.4-.9.9-1.4 1.1-1.1.3.2 0 1.3-.6 2.3zm-2 5c-1.2 2-1.4 1.4-.5-1.2.4-.9.9-1.4 1.1-1.1.3.2 0 1.3-.6 2.3zm-19.3 7c-.8 5.3-.7 6.7 1.1 10.3 1.8 3.8 1.9 6.9.2 7.1-4.7.6-7 1.4-9.5 3.5-1.7 1.4-10.3 7.3-19.1 13.1-17.4 11.4-32.6 23.2-37.9 29.4-2.7 3.2-3.5 3.7-4 2.4-1-2.8-.7-17.7.4-17 .6.3 1-.5 1-1.9s.5-2.8 1-3.1c.6-.3 1-1.4 1-2.3 0-.9 1.1-2.4 2.4-3.2 4.7-2.9 18.2-13.8 26.6-21.5 4.7-4.2 9.6-8.4 11-9.3 1.4-.9 4.4-3.1 6.7-4.9 2.3-1.8 7.7-4.6 12-6.1 4.3-1.6 7.9-2.8 7.9-2.8.1.1-.2 2.9-.8 6.3zm-135.6 6.4c-4.4 2.6-7 6.5-8.9 13.2l-1.7 6.1-1.8-10.9c-.9-6.1-1.5-12.6-1.2-14.5l.6-3.5 7.9 3.9 7.9 3.9-2.8 1.8zm218.3 9.7c-2.3 7.7-7.6 19.1-13.1 27.9-4.4 7.1-6 9-4.7 5.7.3-.9.1-1.9-.5-2.3-.8-.5.5-4.4 4-12.5 2.9-6.5 5.4-11.4 5.6-10.8.1.5-.9 3.8-2.3 7.2-1.4 3.4-2.4 6.4-2.1 6.7.7.7 6.9-12.8 10.8-23.4 3.6-10 5.3-9 2.3 1.5zm-208-7.6c1.4.6 2.5 1.5 2.5 2 0 .4.8.8 1.9.8 1 0 2.4.7 3.1 1.5.7.8 2 1.5 3 1.5s2.3.7 3 1.5c.7.8 2.3 1.5 3.6 1.5 1.2 0 2.6.4 2.9 1 .3.5-.3 1-1.4 1-3.7 0-15.3 13.2-18 20.4-1 2.8-2.4 5.2-3 5.2-.6.1-1.5.2-1.9.3-.5 0-2 2.7-3.4 5.8-6.8 15-9.7 21-11.1 22.8-1.4 1.8-1.5 1.6-2.2-3.9-1-7.9 0-22.7 1.8-26.3.8-1.5 1.7-5.9 2-9.6.6-6.8 1.2-8.4 5.5-16 1.2-2.1 2.2-4.3 2.2-4.9 0-1.6 4.1-5.8 5.6-5.8.7 0 2.5.5 3.9 1.2zm220.1 5.7c1.1 1.2 24 9.5 35.9 13.1 7.4 2.3 8.9 3.1 8.7 4.6-.3 1.5-.2 1.6 1.2.4 2.5-2 8.2.1 13.6 5 2.5 2.2 4.8 4 5.3 4 .4 0 .1-1.6-.7-3.5l-1.5-3.5h4.1c5.5 0 10.8 3.5 10.8 7.1 0 1.5-.8 5.5-1.9 9-1 3.5-2.9 10-4.1 14.4-1.3 4.4-3.5 10.3-5 13.1l-2.7 5.1-9.2-3.4c-5.1-1.8-15.2-4.7-22.5-6.4-7.2-1.7-14-3.4-15.1-3.9-1.1-.5-8.3-2.3-16-4-21-4.7-19.7-4.2-14.3-5.1 7.3-1.1 19.8-5.3 19.4-6.4-.4-1.2-3.8-.8-9.1 1.1-2.2.8-7.6 2.1-11.9 2.9-4.4.8-8.4 1.9-9 2.5-1.3 1.3-4.2 1.3-6.5-.2-2.9-1.8-.9-5.2 2.5-4.4 2.3.6 2.5.4 2.2-2.9-.2-2.9.4-4.1 3.1-6.5 1.8-1.7 3.7-3 4.3-3 .5 0 3 2.2 5.5 5 2.8 3.1 5.3 5 6.6 5 1.8-.1 1-1.2-4.2-5.9l-6.4-5.8 2.1-3.1c1.2-1.6 2.2-4 2.2-5.1 0-2 9.9-19.9 11.1-20 .3-.1.9.3 1.5.8zm-79.6 4.4c0 .1-3.1 3.4-7 7.2-3.8 3.8-7 6.5-7 6 0-.4 3-3.7 6.8-7.2 6.4-6 7.2-6.7 7.2-6zm-104.7 2.1c-5.4 3.7-18.7 8.6-19.9 7.3-.2-.2 1.2-1.8 3.1-3.7 3.4-3.3 6.7-4.3 14.8-4.7 3.4-.1 3.6 0 2 1.1zM179.9 486c-.5.9-.8-1.1-.7-5l.1-6.5.7 5c.4 2.7.3 5.7-.1 6.5zm147-5.5c-1.2 2-3 4-4.1 4.6-2.3 1.3-2 .5 1.9-4.9 3.2-4.3 4.8-4.1 2.2.3zm73.4-.8c-3.4 9.4-17.3 35.2-17.3 32.1 0-.2 2.1-4.2 4.6-8.9 2.5-4.6 6.3-12.1 8.4-16.7 2.2-4.5 4.2-8.2 4.5-8.2.2 0 .2.8-.2 1.7zm-84.7 7.1c-2 3.9-4.4 5.8-22 17.7-8.2 5.5-18 12.9-21.8 16.5-3.8 3.6-7.1 6.4-7.3 6.1-.3-.2-1.2.2-2.1 1-1.6 1.3-1.6 1.2-.6-.7 2.4-4.5 12-13.9 21.7-21.3 11.6-8.8 32.8-23.2 33.3-22.6.2.2-.3 1.7-1.2 3.3zm-94.8-.5c.9-.3.3.4-1.4 1.5-1.8 1.1-3.4 2.6-3.7 3.4-.2.7-.8 1-1.2.6-.4-.4.3-2.1 1.6-3.9 1.2-1.8 2.5-2.7 2.7-2.1.2.6 1.1.8 2 .5zm9.1 6.3c-2.8 3.8-5.3 7.1-5.5 7.3-.2.2-1.7-.2-3.4-.9l-3.1-1.3 2.3-2.4c2.7-2.8 13.9-10.5 14.5-9.9.2.2-1.9 3.5-4.8 7.2zm158 3.1c-7.6 14.1-21.9 37.7-25 41.3-5.7 6.6 10.6-23.8 19.7-36.8 4.8-6.7 8.8-12.2 9-12.2.3 0-1.4 3.5-3.7 7.7zm-174.9.6c0 .2-1 1.2-2.2 2.3l-2.3 1.9 1.9-2.3c1.8-2.1 2.6-2.7 2.6-1.9zm315 24.6c.7 4.5 1 8.4.7 8.8-.3.3-2.2-.5-4.2-1.7-3.3-2.1-3.5-2.4-2.8-5.8.4-2.1.7-8.9.7-15.2v-11.5l2.2 8.7c1.1 4.7 2.7 12.3 3.4 16.7zM201 507c-1.6 3.1-2.3 1.8-.8-1.5.7-1.5 1.4-2.3 1.6-1.7.2.6-.2 2.1-.8 3.2zm191-2c-.6 1.1-1.3 2-1.6 2-.2 0 0-.9.6-2s1.3-2 1.6-2c.2 0 0 .9-.6 2zm115.4 9.9c.5 3.6.4 4.2-.8 3.8-2.5-1-2.8 1.1-.4 2.4l2.2 1.2-2.2.8c-2.6 1-7.5-.9-6.9-2.5.3-.6 1.5-4.9 2.8-9.4l2.4-8.3 1.1 3.8c.6 2.1 1.4 5.8 1.8 8.2zm-310.9 6.5c-1.4 3.2-3.4 8.8-4.5 12.4-1.9 6.6-1.9 6.6-1.3 1.7.8-6.9 3.8-16.3 5.9-18.6 2.7-3 2.7-1.7-.1 4.5zm184.5-1.5c-2 3-4 4.4-2.3 1.8 2.7-4.2 3.8-5.6 4.1-5.2.2.2-.6 1.8-1.8 3.4zm-179.9 1.8c-1.2 2-1.4 1.4-.5-1.2.4-.9.9-1.4 1.1-1.1.3.2 0 1.3-.6 2.3zm-2 5c-1.2 2-1.4 1.4-.5-1.2.4-.9.9-1.4 1.1-1.1.3.2 0 1.3-.6 2.3zm316.9 1.4c0 1.3-1.3 1.1-3.5-.5-1.8-1.3-1.8-1.4.8-.9 1.5.3 2.7.9 2.7 1.4zm-14.6 6.1c2.5 4.6 2.5 4.7.4 5.3-2.7.9-10.8-.4-10.8-1.7 0-.6 1.4-2.6 3-4.5 1.7-1.8 3-3.9 3-4.5 0-1.8 1.6.1 4.4 5.4zm25-.5c8.9 5.8 10.8 7.6 3.6 3.4-3-1.8-7-3.9-8.7-4.8-1.8-.9-3.3-2-3.3-2.5 0-1.4 1.1-.9 8.4 3.9zM186 540l-.8 3.5-.1-3.1c-.1-1.7.2-3.4.6-3.7 1.1-1.2 1.2-.3.3 3.3z"/><path d="M221.1 107.7c-8.3 35.4-9.2 71.8-2.5 95.1 4 13.9 10.3 24.1 19.7 32 2.2 1.8 5.2 5.2 6.7 7.5 2.6 4 7 8.7 7 7.4 0-.3-1.3-2.5-2.8-4.9-6.7-10.1-10.1-21.5-15.6-52.8-2-11.3-4-22.5-4.5-25l-.9-4.5-.1 4c-.2 9.2 8.1 55.9 11.4 63.8 2.5 6.1 1.7 6.1-3.5 0-5.7-6.6-10.9-15.9-13.9-25-7.3-21.8-7.3-61.1 0-95.6 2.6-12.3 1.8-13.9-1-2zM350 112.4c0 .2 1.6 3.8 3.5 8 4.8 10.3 8.7 22.5 12.4 38.6 3.3 14.6 7.9 31.3 8 29.2.2-2.3-2.9-21.2-5-31-4-18.7-13.5-43.1-17.3-44.5-.9-.4-1.6-.5-1.6-.3zM471.6 243c-.4 6.3-1.2 15.3-1.7 20-.5 4.7-.8 10.7-.8 13.5l.1 5 1.3-7c2.2-11.4 3.8-35.5 2.8-39.5-.9-3-1.1-1.8-1.7 8zM258.6 238.2c-.3 1.3-1.2 6.8-2.1 12.3-1.5 9.6-8 39.2-11 50.5-.8 3-1.2 5.6-1 5.9.9.8 4.8-9.4 7.6-20.3 3.5-13 3-7.4-.8 10.2-2.4 11.1-2.5 12.4-1.1 13.8 1.4 1.4 2 1 6.3-5.1 2.6-3.6 4.5-6.8 4.2-7.1-.3-.3-2.8 2.2-5.6 5.6-2.8 3.3-5.1 5.9-5.1 5.7 0-.2.7-1.7 1.5-3.3 1.5-3.1 4.9-16.8 6-24.6.4-2.6 1.1-4.6 1.5-4.3 1.1.7 2.8-28.8 1.7-30.2-.4-.6-.5-3.2-.2-5.6.7-4.7-1-7.8-1.9-3.5zm-2.9 36c-.3.7-.5.2-.5-1.2s.2-1.9.5-1.3c.2.7.2 1.9 0 2.5zM187.7 250.7c-1.4 8.5 3.3 36.5 8.3 50.1 3.2 8.5 7.6 16.4 11.5 20.7l3.6 4-5-9.5c-4.6-8.8-7.9-16.8-9.6-23-.4-1.4 1.3.9 3.8 5 6.1 10.1 10.8 15.4 16.1 18 2.5 1.1 5 2.8 5.6 3.6 2.2 2.6 3.2 1.5 1.2-1.4-3.4-5-3.3-5.1 2.3-1.7 5.2 3.1 12.1 5.3 13.2 4.1.3-.3-.7-1-2.3-1.6-7.1-2.7-11.4-5.4-15.5-9.7-3.9-4.2-4.4-4.5-4.7-2.6-.2 1.2.4 3.5 1.2 5.2 2.5 4.7 1.9 4.8-2.5.6-6.5-6.2-15.4-20.5-19.7-31.7-4.1-10.5-7.1-27.4-5.7-31.8.3-1.1.2-2-.3-2s-1.2 1.7-1.5 3.7zM482 250.1c0 .5.5.7 1 .4.6-.3 1-.8 1-1.1 0-.2-.4-.4-1-.4-.5 0-1 .5-1 1.1zM299.2 278.1c-4.9.9-6.4 1.7-5.7 2.8.5.8 13-2.1 14.2-3.3.8-.8-3.2-.6-8.5.5zM242.6 285.5c-1 2.8-2.9 34.2-2.2 37.2 1.5 5.6 2.3-.2 3-19.5.3-10.5.4-19.2.2-19.2s-.7.7-1 1.5zM269.5 315c1 1.1 2 2 2.2 2 .2 0-.1-.9-.7-2s-1.6-2-2.2-2c-.6 0-.3.9.7 2zM223 330.5c-2 2.4-.6 2.8 1.5.5 1-1.1 1.3-2 .8-2-.6 0-1.6.7-2.3 1.5zM359.5 343c-.7 1.1 4.2 3.7 5.1 2.7.9-.9-1.5-3.7-3.2-3.7-.7 0-1.6.4-1.9 1zM354.7 346.6c-1.1 1.1.3 2.4 2.5 2.4 1.7 0 1.8-.2.8-1.5-1.3-1.6-2.3-1.9-3.3-.9zM375.3 348.2c-1.2 1.6-2.4 4.8-1.8 4.8.2 0 1.1-1.4 2-3 1.6-3.1 1.5-4-.2-1.8zM339.2 353.6c-1.2.8-2.2 1.9-2.2 2.5 0 1.5 3.6 1 5-.6 2-2.4-.1-3.8-2.8-1.9zM152.2 358.2c-1.4 1.4-1.6 3.8-.4 3.8 1 0 4.2-3.3 4.2-4.3 0-1.1-2.5-.8-3.8.5zM155.5 364.9c-.6 1.1.9 2.3 1.9 1.4.9-.9.7-2.3-.3-2.3-.6 0-1.2.4-1.6.9zM317.7 370.1c-3.7 2.9-6.7 5.6-6.7 6.2 0 1.1 3.8-1.2 9.7-5.9 2.3-1.9 4.6-3.4 5.2-3.4.6 0 1.1-.5 1.1-1 0-2.1-2.8-.8-9.3 4.1zM340.4 370.5c-2.1 2-3 3.1-1.9 2.6 3-1.6 8.1-6.1 6.9-6.1-.6 0-2.8 1.6-5 3.5zM326.3 369.7c-1.8.9-3.3 2-3.3 2.5 0 .8 3.6-.8 7-3.1 2.3-1.6-.1-1.2-3.7.6zM212 378.9c0 1.2.5 2.1 1 2.1.6 0 1-.6 1-1.4 0-.8-.4-1.8-1-2.1-.5-.3-1 .3-1 1.4zM166.3 383.2c-1.2 1.5-5.3 9.5-5.3 10.3 0 1.7 2.3-1.2 4.6-5.7 2.4-4.8 2.8-7.2.7-4.6zM172.5 387.5c-1.5 1.9-2.5 3.8-2.2 4.1.3.3 1.7-1.1 3.2-3.1 1.5-1.9 2.5-3.8 2.2-4.1-.3-.3-1.7 1.1-3.2 3.1zM153 390.9c-1.1 2.3-1.7 4.1-1.2 4.1 1 0 4.5-7 3.8-7.7-.2-.3-1.4 1.3-2.6 3.6zM256 412.5c-1.9.7-6.1 1.4-9.3 1.4-3.6.1-5.6.5-5.2 1.1 1.6 2.6 17 .3 18.9-2.9.9-1.4 0-1.3-4.4.4zM220 416.1c0 1.6 9.8 1.5 11.4-.1.6-.6-1.5-.9-5.2-.9-3.4.1-6.2.5-6.2 1zM494 207c2 1.3 5.3 1.3 4.5 0-.3-.6-1.8-1-3.3-1-2.1 0-2.4.2-1.2 1zM514.5 256.7c-1.1.3-2.9 1.2-4 1.9-1.1.8-3.1 1.4-4.6 1.4-2.4 0-2.7.5-3.6 5.1-1 4.8-.9 5.1 1.6 6.6 6.7 4.1 10.4 6.9 12.1 9l1.8 2.4 2.2-5.8c2.7-7.1 2.8-12.1.5-17.3-1.8-4-2.2-4.2-6-3.3zm.4 11.1c-1.2 3.7-2.3 6.9-2.5 7.1-.1.1-1.9-.9-3.8-2.4-5.1-3.9-4.8-8.7.6-10 1.5-.4 3.4-1.6 4.4-2.6 1.6-1.8 1.9-1.8 2.7-.4.5 1 .1 3.9-1.4 8.3zm3.5 7.6c-.3 2.1-.8 3.5-1.1 3.2-.2-.2-.1-2 .3-4 .3-2.1.8-3.5 1.1-3.2.2.2.1 2-.3 4zM496 192.9c0 2.3 1.5 4.3 4.3 5.7 2.5 1.3 3.4 1.4 5.3.3 3.3-1.7 3-3-.5-2.3-2.4.5-3.5.1-5.4-2-2.5-2.7-3.7-3.2-3.7-1.7zM472 488.7c0 .4 1 1.7 2.2 3 1.2 1.3 2 2.4 1.7 2.6-2.6 1.6-14.9 5.1-20.5 5.8-4 .5-10.9 2.1-15.5 3.5-7.4 2.4-8.1 2.8-6.2 3.7 1.7.7 4.1.4 9.8-1.2 4.1-1.3 10.8-2.5 15-2.8 4.9-.4 7.5-1 7.5-1.8 0-1.2 5.6-3.1 10.8-3.8 3.8-.5 4.7-2.2 2.8-5.2-1.9-2.9-7.6-5.7-7.6-3.8zM123.2 3.5c-6.7 7.5-15.2 21.8-13.9 23.2.3.2 1.7-1.8 3.2-4.4 3.5-6 9.8-14.8 13.8-19.1C128.6.9 129 0 127.8 0c-.9 0-3 1.6-4.6 3.5zM239 50c-7.4 1-16.6 2.4-20.5 3.1-3.8.8-7.6 1.3-8.2 1.2-.7 0-1.3.4-1.3.9 0 .6-1.1.7-2.5.4-2.8-.7-11.6 1.1-24.8 5.1-14 4.2-9.3 3.8 6.9-.6 13.8-3.9 20.7-5.2 15.9-3.1-3.2 1.4.4 1.2 8.2-.4 19.3-4 33.3-5.1 64.8-5.1 26.3.1 33.5.4 47.5 2.3 37.7 5.1 69.7 13.6 90.5 23.9 9.9 4.9 25.4 14.1 28.8 17.1.9.8 1.7 1 1.7.5 0-2.1-3.7-5.2-13.5-11.4-13.2-8.3-25-13.7-42-19.2-22.8-7.4-51.8-13-81.5-15.6-18.2-1.7-54.3-1.2-70 .9z"/><path d="M168 65c-1.8 1.2-.2 1.2 2.5 0 1.3-.6 1.5-.9.5-.9-.8 0-2.2.4-3 .9zM340 69.7c-2.5.2-8.8 1-14 1.8-5.2.8-13.5 2-18.5 2.6-8.7 1.1-14.2 2.5-13.4 3.4.5.4 28.8-2.3 30.7-3 .7-.2 7.1-1.2 14.3-2.1 15.2-1.8 20.6-3.3 11.4-3.2-3.3.1-8 .3-10.5.5zM538 91.5c0 1.1 1.1 1.5 4.1 1.5 2.2 0 3.8.4 3.4.9-1 1.6 1.2 2.1 4.4 1 2-.7 3.1-1.8 3.1-3 0-1.7-.8-1.9-7.5-1.9-6 0-7.5.3-7.5 1.5zM533.4 100c-4.5 2.2-8.5 6-6.5 6 .6 0 2.4-.9 3.9-2s4.1-2.4 5.9-2.9l3.1-.9-5.4 10.9c-5.3 10.7-6 12.9-4.8 14.2.5.5 12.6-22.6 13.7-26 .5-1.7-6.1-1.2-9.9.7zM546.7 112.9c-5.3 6.6-5.9 9.1-1.3 5.6 2.6-2 4.6-1.9 6.2.2 1.2 1.6 1.3 1.5 1.4-1.5 0-3-.2-3.3-2.1-2.7-2.3.8-2.1-.3.8-3.7.8-.9 1.3-2.4 1.1-3.3-.2-1.1-2.1.6-6.1 5.4zM116.1 126.5c-2.9 3-5.4 5.5-5.7 5.5-.3 0-5.6 5-11.7 11.1-13.3 13.2-25.1 22.3-36.6 28.1-8.2 4.2-8.5 4.3-18.5 4.3-9.5 0-10.5-.2-16.4-3.3-8.2-4.2-11.9-7-12.5-9.3-.3-1.2-1.1-1.7-1.9-1.4-1 .4-3.3-1.5-6.3-5.2-2.7-3.2-5.2-6.2-5.7-6.7-.4-.6-.8 0-.8 1.3 0 1.5 2.9 5.1 8.7 10.9 14.8 14.8 30.2 21.6 43.1 19.2 5.3-.9 9.4-3 25.8-13l6-3.7-5.3 12.5C66.3 204.7 60 228 55.4 261c-2.9 20.9-2.3 63.9 1.1 80.2.9 3.9 1.7 7.4 2 7.8.3.5-.5 1.2-1.7 1.6-2.6.8-11.6 7.3-13.7 9.8-2.3 2.8-.9 3.8 19.2 13.7 3.8 1.9 7.3 4 7.9 4.6 1.5 1.9 4.6 1.6 5.2-.5.4-1.4.5-1.3.4.3-.1 1.1.4 3.1.9 4.5.6 1.4 1.7 4.1 2.5 6 1.5 3.6 6.7 10.4 7.4 9.7.3-.2-.9-3.1-2.5-6.4-1.6-3.2-3.3-7.2-3.7-8.7l-.6-2.7 3.7 2.5c3.7 2.5 6.2 3.1 11.6 2.7 2.1-.1 2.8.5 4.2 3.6 2.5 6.1 5.1 14.6 4.9 16.8 0 1 1.1 4 2.7 6.5 1.5 2.5 3.8 7.5 5.2 11.2l2.4 6.8-5.5 5.7c-3.1 3.2-10.5 11-16.6 17.3-11.8 12.4-24.9 29.1-28.9 37-7.1 14-16.5 41.7-16.5 48.5 0 4.3 2.4 10.5 4.1 10.5.8 0 .8.4-.1 1.5-1.1 1.3-.4 1.5 4.9 1.5 3.4 0 7.7-.7 9.6-1.5 3.6-1.5 5.8-4.6 3.7-5.3-.7-.2.1-1.4 1.7-2.8 2.7-2.3 3.1-2.3 6.3-1 1.9.8 5.7 3.5 8.5 6s5.9 4.6 6.9 4.6c2.3-.1-7.3-9.2-12.5-11.9l-3.4-1.8 2.4-1.6c2.8-2 6.5-2.1 9.7-.4 3.1 1.8 9.8 10.1 10.6 13.2.4 1.6 1.3 2.5 2.6 2.5 2.9 0 2.5-1.5-2-6.4-2.2-2.4-4-4.6-4-4.9 0-.3 1.7-1.1 3.8-1.7 2-.7 10-4.5 17.7-8.5 7.7-4 14.9-7.5 16-7.9 1.6-.5.7 2.1-5.2 14.2-5.8 12-6.8 14.8-5.5 15.1.9.2 1.8-.1 2-.5.1-.5 3.8-7.7 8-15.9 5.9-11.5 8.1-14.9 9.5-14.7 1.9.3 2.3-1.8.6-3.5-.6-.6-.8-1.7-.4-2.3 1.6-2.6 2.5 1.7 2.3 11-.1 7.4-.2 8.4-.7 4.5-.7-6.3-2.2-4.5-2.7 3.1-.2 3-1.2 7.5-2.3 10-2.7 6-2.6 6.6.4 2.9l2.5-3v4.2c0 4.2.1 4.3 3.5 4.3 4.7 0 5-1.5 4.8-24.6-.1-18.2-1.3-27.6-4.8-37.9-.4-1.1.2-.5 1.4 1.3s1.9 3.6 1.7 4c-.7 1.2 2.2 7.2 3.6 7.2 1.3 0 11.5 16.2 15.6 24.5 1.9 4 6.8 19.2 7.4 23 .2 1.1 1.2 2.1 2.2 2.3 1.6.3 1.7-.1 1.1-3-.4-1.8-1.3-4.9-2-6.8-.8-1.9-2.8-7.3-4.5-12-3.5-9.5-8.3-18.6-12.9-24.3-4.1-5.3-18.1-33.1-22.6-45.2-4.1-10.9-7.6-24.5-9.7-37-1.2-7.4-1.3-7.7-1.8-4-.4 3.1-.9 1.3-2.1-8.5-1.6-13.7-1.4-14.3 3.8-11.7 3.8 1.9 9.5 2.9 11.1 1.8 1-.6.3-1-2.3-1.5-8.9-1.7-26.8-9.7-34.5-15.5-10.9-8.2-22.1-25.3-23.5-35.8-.3-2.7-1-5.6-1.6-6.5-.5-1-.9-7.1-1-13.5-.1-10.1-.3-11.2-1.1-7.3-1 4.7-.3 45 .8 50.9.5 2.4.3 3.2-.5 2.7-1.9-1.2-9.3-16.7-9.6-20.1-.2-1.8-1.3-7.6-2.5-13.1-7.9-36.5-6.3-76.6 5-121.5 9.1-36 18.6-53.9 48.7-91.2 5.8-7.2 6.9-8.7 5.9-8.7-.2 0-2.7 2.5-5.5 5.5zm-56.7 229c-.4.8-.1 1.5.4 1.5.6 0 2 1.9 3.1 4.2 1.1 2.4 3.3 6.3 4.8 8.8l2.8 4.5-2.5-1.8c-1.4-1-4.5-2.7-7-3.8-14.3-6.5-14.6-7-7.6-11.9 4.5-3.2 6.8-3.8 6-1.5zm29.5 22.4l4.2 5-5.8-2.4c-3.2-1.3-6.5-2.6-7.4-2.8-1.1-.4-1.9-2.8-2.7-8.9-1.9-13.2-1.6-13.7 3.2-4.4 2.4 4.7 6.2 10.8 8.5 13.5zm28.9 19.6c.5.5 4.1 31.9 3.7 32.3-.2.2-1.5-3.1-2.8-7.5-1.4-4.3-2.1-7.9-1.6-8.1.5-.2-.1-2.2-1.3-4.5-1.1-2.3-2.7-6.4-3.4-9l-1.3-4.8 3.2.7c1.8.3 3.4.8 3.5.9zm-3.8 40c-1.3 1.4-2.6 2.3-2.8 2-.3-.3.5-1.6 1.8-3s2.6-2.3 2.8-2c.3.3-.5 1.6-1.8 3zm9.2 6.8c.9.9 2.1 4 2.7 6.8 1 4.7 1 5.3-.8 6.6-2.2 1.5-7.2 15.8-11.6 33.3-1.5 5.8-2.9 10.7-3.2 11-.3.3-.3-4.8.1-11.3.6-10.4 1.4-16.5 3.1-25.7 1.2-5.9-1.6 1.2-3.5 9.1-2.3 9.2-4.4 46-2.9 49 .7 1.4-.9 2.7-8.2 6.8-8.6 5-9.2 5.1-12.5 3.9-2.7-.9-4.1-1-6.6 0-1.7.6-3.4 1-3.6.7-1.4-1.4 2-19.2 4.7-25.1 2.5-5.4 2.7-6.5 1.5-7.5-.8-.6-1.6-1-1.8-.8-2.2 2.5-12.5 28.3-16.3 40.9-.8 2.8-2.3-1.2-2.3-6.2 0-6.7 3.7-25 6.2-30.6 1.2-2.6 2.2-4.9 2.2-5.2.3-1.8 14.8-27.4 17.7-31.3 2-2.6 9.3-10.8 16.4-18.3l12.7-13.5 2.2 2.9c1.1 1.6 2.8 3.6 3.8 4.5zm11.8 36.5c2.1 4.5 2.7 6.9 2.1 8.5-.4 1.2-1.1 3.9-1.5 5.9-.5 3-.4 3.8.7 3.8.8 0 1.8-.8 2.2-1.8.6-1.5.8-1.4 1.6.7.5 1.3.8 2.5.7 2.5-.2.1-2 .9-4.1 1.9-2.1 1-3.7 2.3-3.4 3 .5 1.5-2.2 3.6-4.5 3.7-2.4 0-2.4-.1 1.7-13.4 4-13.1 3.9-12.6 2.4-12.6-1.4 0-3.4 5.2-6.9 18.2-3.9 14.8-4 14.9-9 17.7l-4.3 2.4.7-6.5c.8-7.9 3.2-17.4 7.5-28.7 1.7-4.7 2.9-8.6 2.7-8.8-.2-.3-1.6 2.1-3 5.1-1.5 3.1-2.8 5.6-3 5.6-.7 0 6.5-24.3 8.1-27.3l1.6-3.1 2.4 8.5c1.3 4.6 3.7 11.2 5.3 14.7zm7.3 5.2c-.2 1.4.5 7 1.6 12.4 2.2 10.2 2.5 13.6 1.2 10.1-.8-1.9-.8-1.9-1.5.2-.5 1.5-1.5 2.3-2.9 2.3-2.1 0-2-.2.7-2.3l2.8-2.3-1.2-5.7c-.7-3.2-1.9-6.2-2.7-6.8-1-.9-1-1.5-.2-2.5.7-.9.7-2.9 0-7-1.5-7.8-1.3-8.5.9-4.4 1 2 1.6 4.6 1.3 6zm-80 23.7c-3.4 10.8-4.7 29.9-2.3 32.9.7.8 1.1 1.6.9 1.7-3.8 3-7.2 4.8-7.7 4.2-.4-.3-.9-4.1-1-8.4-.4-6.8.1-9.1 3.3-18.7 3.1-9.3 7.7-19.4 8.9-19.4.2 0-.7 3.5-2.1 7.7zm75.7 8.7c-1.5 1.4-8 3.2-8 2.2 0-.9 5.4-3.5 7.5-3.6 1.7 0 1.7.2.5 1.4zm-64.8 11.8c-.4 5.8-1.9 8.7-4.4 8.8-.4 0 .5-3.4 1.9-7.5 1.3-4.1 2.6-7.5 2.7-7.5.1 0 0 2.8-.2 6.2zM118 526c-.8.5-1.9 1-2.5 1-.5 0-.3-.5.5-1s2-1 2.5-1c.6 0 .3.5-.5 1zM548.3 126.6c-2.1 2-4.8 4-6.1 4.5-3.2 1.2-7.2 1.1-7.2-.2 0-.5-.5-.7-1-.4-.7.4-.2 1.4 1.1 2.6 2.6 2.2 2.7 2.2 6.5.9 2.2-.8 4-.7 7 .3l3.9 1.4.2-6.3c.2-3.5.1-6.4-.1-6.4-.3 0-2.2 1.6-4.3 3.6zm2.7 3.2c0 1.3-1.2 2.2-2.2 1.6-1-.6-.1-2.4 1.3-2.4.5 0 .9.4.9.8zM164 129c0 .5.4 1 .9 1s1.8.3 2.8.6c1.6.5 1.6.4-.1-1-2.3-1.8-3.6-2-3.6-.6zM541.3 158.7c-2 .7-1.5 2.7.9 3.8 1.5.7 2.2 2.1 2.5 4.7l.4 3.8-5.1-2c-2.8-1.1-5.4-2-5.8-2-.4 0-.6 1.8-.4 4 .4 3.4.2 3.9-1.2 3.4-1.2-.5-1.5-.2-1 1 1 2.5 4.3 2 5-.8.3-1.4.3-3-.1-3.6-.4-.7.7-.5 2.3.4 1.7.9 3.8 1.6 4.8 1.6s1.4.5 1.1 1.4c-.3.8.1 1.7.9 2 2.5 1 7.4.7 7.4-.4 0-.6-1-1-2.2-1-4.3 0-5.2-1.5-2.4-3.8 3.1-2.4 3.2-2.9.9-5.4-1.7-1.9-1.6-1.9 1-1.3 2.1.6 2.7.4 2.7-.9 0-.9-.6-1.6-1.4-1.6-.8 0-2.1-.6-2.8-1.3-1.6-1.6-5.8-2.7-7.5-2zM537.5 207.4c0 1.2 1.6 4.1 3.6 6.3 1.9 2.1 5.3 7.2 7.5 11.2 3.4 6.4 3.9 7 4.2 4.6.2-1.4-.2-3.3-.9-4.1-.8-1-.8-1.4 0-1.4 2.5 0 .8-3.1-4.9-9-3.2-3.4-6.2-7-6.5-8.1-.9-2.7-3.1-2.4-3 .5zM551.5 296c-.3.5-.1 1 .4 1 .6 0 1.1-.5 1.1-1 0-.6-.2-1-.4-1-.3 0-.8.4-1.1 1zM533 423.6c0 .3 1.9 2.8 4.3 5.5 5.2 6 10.1 13.9 13.3 21.6l2.4 5.8v-3.8c0-4-2.4-9.4-7.4-16.7-5.4-8-12.6-15-12.6-12.4zM478.6 477.9c-.3.5.1 1.4.9 2.1 1.2 1 1.5 1 1.5-.3 0-1.9-1.6-3.1-2.4-1.8zM246 482.2c-.5.7-3.1 4-5.7 7.2-2.7 3.2-6.7 8.1-9 10.8-2.4 2.7-4.3 5.1-4.3 5.5 0 1.5 8.3 11.4 12.3 14.7 4 3.3 6.7 4.5 6.7 3.1 0-.3-3.9-4.4-8.6-9.1l-8.5-8.6 5.3-5.6c2.9-3.2 6.7-7.4 8.4-9.5l3.1-3.8 1.2 7.3c.6 3.9 1.5 13 1.8 20.1.4 7.4 1 12.3 1.4 11.5 1.4-2.2 1-21-.7-30.4-.8-4.9-1.3-10.1-1-11.7.6-2.8-.6-3.6-2.4-1.5z"/><path d="M241.2 502.2c-1.6 1.6-1.5 4.6.3 6.4 2.2 2.2 3.5.8 3.5-3.7 0-4-1.4-5.1-3.8-2.7zm1.5 4c-.3.8-.6.5-.6-.6-.1-1.1.2-1.7.5-1.3.3.3.4 1.2.1 1.9zM207.5 515.9c-1.8 4.1-1.4 7.6.8 6.9 1.5-.5 4-7.7 3.3-9.5-.9-2.3-2.2-1.4-4.1 2.6zM513 512.5c0 1.5 1.8 4 2.4 3.4.3-.3-.1-1.4-.9-2.5-.8-1-1.4-1.5-1.5-.9zM220.7 518.2c-1.4 2.4-5.7 10.6-9.6 18.2-5.4 10.7-6.8 14.2-6 15.3.6.7 1.9 1.3 2.7 1.3 1.4 0 1.5-.2.1-1.5-1.3-1.3-.5-3.4 6.7-17.9 4.5-9.1 8.4-17.1 8.6-17.8.3-.8 2.2.3 5.5 3.3 5.1 4.8 9.1 7.4 9.9 6.6.8-.7-12.5-11.7-14.1-11.7-.8 0-2.5 1.9-3.8 4.2zM281.3 522.2c-4 6.2-13.4 25.1-12.8 25.7.3.3 1.1-.2 1.9-1 1.4-1.6 14.7-28.9 14.1-28.9-.3 0-1.7 1.9-3.2 4.2zM236.8 533.7c-.8 1-3.6 5.7-6.2 10.5-3.5 6.6-4.3 8.8-3.2 8.8 1 0 3.5-3.9 6.7-10.1 4.9-9.9 5.8-12.7 2.7-9.2zM241.2 537.2c-4.3 6.4-8.2 13.3-8.2 14.6 0 2.1 2.8 1.3 3.6-1.1.4-1.2 2.1-4.5 3.9-7.2 4.9-7.7 5.6-9.3 4.6-10-.6-.3-2.3 1.4-3.9 3.7zM306.7 536.8c-4.6 5.1-11.6 15.7-10.5 16.1.6.2 1.7-.4 2.5-1.5 1.2-1.6 1.3-1.6 1.3-.1 0 .9.7 1.7 1.5 1.7s1.5-.9 1.5-1.9c0-1.1.5-2.3 1.2-2.7.8-.5.7-.9-.5-1.3-1.3-.5-1-1.5 2.3-5.8 2.2-2.8 3.6-5.4 3.1-5.7-.4-.3-1.5.2-2.4 1.2zM247.1 539.8c-1.5 2.8-2.6 13.2-1.4 13.2.9 0 3.6-14 2.8-14.8-.2-.2-.8.5-1.4 1.6zM129.7 547.2c-1.6 5.1-1.5 7.1.2 5.2 1-.9 2.7-10.4 1.9-10.4-.2 0-1.2 2.3-2.1 5.2zM136 552c0 .5.7 1 1.6 1 .8 0 1.2-.5.9-1-.3-.6-1-1-1.6-1-.5 0-.9.4-.9 1zM423.5 552l-4 .7 5 .1c2.8 0 6.1-.4 7.5-.8 2.2-.7 2.1-.8-1-.8-1.9.1-5.3.4-7.5.8zM442.5 552c-.4.6 3.4 1 10.7.9 9.3-.1 10.4-.3 6.3-.9-7.3-1.2-16.3-1.2-17 0zM466.5 552c-.4.6.6 1 2.2 1 2.2 0 2.5-.2 1.3-1-1.9-1.2-2.7-1.2-3.5 0z"/></svg>